<svg xmlns="http://www.w3.org/2000/svg" viewBox="0 0 128 128">
  <path d="M64 107.5c-1.5 0-3-.6-4-1.7L21.5 56.3c-1.3-1.5-1.3-3.7 0-5.2l7.5-8.8c1.3-1.5 3.5-1.5 4.8 0L64 76.5l30.2-34.2c1.3-1.5 3.5-1.5 4.8 0l7.5 8.8c1.3 1.5 1.3 3.7 0 5.2L68 105.8c-1 1.1-2.5 1.7-4 1.7z" fill="#41b883"/>
  <path d="M64 107.5c-1.5 0-3-.6-4-1.7L21.5 56.3c-1.3-1.5-1.3-3.7 0-5.2l7.5-8.8c1.3-1.5 3.5-1.5 4.8 0L64 76.5l30.2-34.2c1.3-1.5 3.5-1.5 4.8 0l7.5 8.8c1.3 1.5 1.3 3.7 0 5.2L68 105.8c-1 1.1-2.5 1.7-4 1.7z" fill="#35495e" transform="translate(64 64) scale(0.6) translate(-64 -64)"/>
</svg>
